<svg width="383" height="425" viewBox="0 0 383 425" fill="none" xmlns="http://www.w3.org/2000/svg">
<g clip-path="url(#clip0_54_371)">
<path d="M364.187 291.187L364.039 290.71L363.562 290.857L274.359 318.334L204.212 90.6068L204.065 90.129L203.587 90.2762L135.125 111.364L134.647 111.512L134.795 111.989L221.368 393.042L221.515 393.52L221.993 393.373L380.135 344.66L380.612 344.513L380.465 344.035L364.187 291.187Z" stroke="#FFD38B" stroke-opacity="0.1"/>
<path d="M230.139 140.484L230.286 140.961L230.764 140.814L319.966 113.337L390.113 341.064L390.261 341.542L390.738 341.395L459.2 320.307L459.678 320.159L459.531 319.682L372.958 38.6291L372.81 38.1513L372.333 38.2985L214.191 87.0111L213.713 87.1583L213.86 87.6362L230.139 140.484Z" stroke="#FFD38B" stroke-opacity="0.1"/>
</g>
<defs>
<clipPath id="clip0_54_371">
<rect width="383" height="424" fill="white" transform="translate(0 0.302002)"/>
</clipPath>
</defs>
</svg>
