<svg width="35" height="34" viewBox="0 0 35 34" fill="none" xmlns="http://www.w3.org/2000/svg">
<path opacity="0.4" d="M3.54639 5.66671C3.54639 4.1019 4.81491 2.83337 6.37972 2.83337H17.7131C19.2779 2.83337 20.5464 4.1019 20.5464 5.66671V11.3334C20.5464 12.8982 19.2779 14.1667 17.7131 14.1667H6.37972C4.81491 14.1667 3.54639 12.8982 3.54639 11.3334V5.66671Z" fill="#FDD490"/>
<path opacity="0.4" d="M14.8796 22.6667C14.8796 21.1019 16.1482 19.8334 17.713 19.8334H29.0463C30.6111 19.8334 31.8796 21.1019 31.8796 22.6667V28.3334C31.8796 29.8982 30.6111 31.1667 29.0463 31.1667H17.713C16.1482 31.1667 14.8796 29.8982 14.8796 28.3334V22.6667Z" fill="#FDD490"/>
<path fill-rule="evenodd" clip-rule="evenodd" d="M29.9013 9.56258L28.8818 10.5821C28.4669 10.997 28.4669 11.6698 28.8818 12.0847C29.2967 12.4996 29.9695 12.4996 30.3844 12.0847L32.216 10.2531C33.1842 9.28494 33.1842 7.71522 32.216 6.74705L30.3844 4.91545C29.9695 4.50052 29.2967 4.50052 28.8818 4.91545C28.4669 5.33038 28.4669 6.00312 28.8818 6.41805L29.9013 7.43758L23.3796 7.43758C22.7928 7.43758 22.3171 7.91328 22.3171 8.50008C22.3171 9.08688 22.7928 9.56258 23.3796 9.56258L29.9013 9.56258Z" fill="#FDD490"/>
<path fill-rule="evenodd" clip-rule="evenodd" d="M5.52469 26.5626L6.54422 27.5821C6.95915 27.997 6.95915 28.6698 6.54422 29.0847C6.12929 29.4996 5.45655 29.4996 5.04162 29.0847L3.21002 27.2531C2.24184 26.2849 2.24184 24.7152 3.21002 23.747L5.04162 21.9154C5.45655 21.5005 6.12929 21.5005 6.54422 21.9154C6.95915 22.3304 6.95915 23.0031 6.54422 23.418L5.52469 24.4376L12.0464 24.4376C12.6332 24.4376 13.1089 24.9133 13.1089 25.5001C13.1089 26.0869 12.6332 26.5626 12.0464 26.5626L5.52469 26.5626Z" fill="#FDD490"/>
</svg>
